# xmcd
#
# Track frame offsets:
#	150
#	14745
#	27577
#	41281
#	54483
#	68273
#	82827
#	95655
#	107423
#	121076
#	135115
#	148229
#	158932
#	173151
#	185433
#	196708
#	206274
#	218793
#	233522
#	246250
#	257303
#	270505
#	281180
#	292862
#	304791
#	317609
#
# Disc length: 4409 seconds
#
# Revision: 0
# Processed by: cddbd v1.5.2PL0 Copyright (c) Steve Scherf et al.
# Submitted via: EasyCDDAExtractor 9.1.3.1
#
DISCID=5a11371a
DTITLE=Bert Kaempfert - Best Of
DYEAR=1900
DGENRE=
TTITLE0=Wonderland by night
TTITLE1=Midnight blues
TTITLE2=Dreaming the blues
TTITLE3=The aim of my desire
TTITLE4=Without your love
TTITLE5=Only those in love
TTITLE6=Echo in the night
TTITLE7=Someone
TTITLE8=For Nothing
TTITLE9=Till
TTITLE10=Ducky
TTITLE11=Catalania
TTITLE12=A swingin' Safari
TTITLE13=Danke Schoen
TTITLE14=The big build up
TTITLE15=Love
TTITLE16=Cerveza
TTITLE17=Tenderly
TTITLE18=Now and forever
TTITLE19=Afrikaan beat
TTITLE20=That happy feeling
TTITLE21=Red roses for a blue lady
TTITLE22=Three o'clock in the morning
TTITLE23=Moon over Naples
TTITLE24=Can't give you anything but love
TTITLE25=Bye bye blues
EXTD=
EXTT0=
EXTT1=
EXTT2=
EXTT3=
EXTT4=
EXTT5=
EXTT6=
EXTT7=
EXTT8=
EXTT9=
EXTT10=
EXTT11=
EXTT12=
EXTT13=
EXTT14=
EXTT15=
EXTT16=
EXTT17=
EXTT18=
EXTT19=
EXTT20=
EXTT21=
EXTT22=
EXTT23=
EXTT24=
EXTT25=
PLAYORDER=
